<?xml version="1.0" encoding="UTF-8" standalone="no"?>
<!DOCTYPE svg PUBLIC "-//W3C//DTD SVG 1.1//EN"
 "http://www.w3.org/Graphics/SVG/1.1/DTD/svg11.dtd">
<!-- Generated by graphviz version 2.37.20140115.0545 (20140115.0545)
 -->
<!-- Title: G Pages: 1 -->
<svg width="724pt" height="76pt"
 viewBox="0.00 0.00 724.00 76.00" xmlns="http://www.w3.org/2000/svg" xmlns:xlink="http://www.w3.org/1999/xlink">
<g id="graph0" class="graph" transform="scale(1 1) rotate(0) translate(4 72)">
<title>G</title>
<polygon fill="white" stroke="none" points="-4,4 -4,-72 720,-72 720,4 -4,4"/>
<!-- data1 -->
<g id="node1" class="node"><title>data1</title>
<polygon fill="none" stroke="black" points="62,-36 0,-36 0,-0 62,-0 62,-36"/>
<text text-anchor="middle" x="31" y="-14.3" font-family="Times New Roman,serif" font-size="14.00">数据包1</text>
</g>
<!-- decode1 -->
<g id="node2" class="node"><title>decode1</title>
<polygon fill="none" stroke="black" points="237.5,-36 150.5,-36 150.5,-0 237.5,-0 237.5,-36"/>
<text text-anchor="middle" x="194" y="-14.3" font-family="Times New Roman,serif" font-size="14.00">解析数据包1</text>
</g>
<!-- data1&#45;&gt;decode1 -->
<g id="edge2" class="edge"><title>data1&#45;&gt;decode1</title>
<path fill="none" stroke="black" d="M62.2829,-18C84.2361,-18 114.486,-18 140.356,-18"/>
<polygon fill="black" stroke="black" points="140.398,-21.5001 150.398,-18 140.398,-14.5001 140.398,-21.5001"/>
<text text-anchor="middle" x="106" y="-21.8" font-family="Times New Roman,serif" font-size="14.00">空闲中断</text>
</g>
<!-- handle1 -->
<g id="node3" class="node"><title>handle1</title>
<polygon fill="none" stroke="black" points="363.5,-68 276.5,-68 276.5,-32 363.5,-32 363.5,-68"/>
<text text-anchor="middle" x="320" y="-46.3" font-family="Times New Roman,serif" font-size="14.00">处理数据包1</text>
</g>
<!-- decode1&#45;&gt;handle1 -->
<g id="edge3" class="edge"><title>decode1&#45;&gt;handle1</title>
<path fill="none" stroke="black" d="M237.674,-29.0126C246.929,-31.401 256.822,-33.9541 266.409,-36.428"/>
<polygon fill="black" stroke="black" points="265.69,-39.8572 276.248,-38.9671 267.439,-33.0793 265.69,-39.8572"/>
</g>
<!-- data2 -->
<g id="node4" class="node"><title>data2</title>
<polygon fill="none" stroke="black" points="464,-36 402,-36 402,-0 464,-0 464,-36"/>
<text text-anchor="middle" x="433" y="-14.3" font-family="Times New Roman,serif" font-size="14.00">数据包2</text>
</g>
<!-- decode1&#45;&gt;data2 -->
<g id="edge1" class="edge"><title>decode1&#45;&gt;data2</title>
<path fill="none" stroke="black" stroke-dasharray="1,5" d="M237.787,-11.7213C250.094,-10.1861 263.555,-8.76533 276,-8 315.037,-5.5994 324.993,-5.14718 364,-8 373.079,-8.664 382.786,-9.82032 391.94,-11.1166"/>
<polygon fill="black" stroke="black" points="391.569,-14.6 401.977,-12.6207 392.606,-7.67727 391.569,-14.6"/>
<text text-anchor="middle" x="320" y="-11.8" font-family="Times New Roman,serif" font-size="14.00">中断</text>
</g>
<!-- handle1&#45;&gt;data2 -->
<g id="edge4" class="edge"><title>handle1&#45;&gt;data2</title>
<path fill="none" stroke="black" d="M363.598,-37.7195C372.937,-35.0272 382.792,-32.1862 392.023,-29.5248"/>
<polygon fill="black" stroke="black" points="393.103,-32.8562 401.742,-26.723 391.164,-26.1301 393.103,-32.8562"/>
</g>
<!-- decode2 -->
<g id="node5" class="node"><title>decode2</title>
<polygon fill="none" stroke="black" points="589.5,-36 502.5,-36 502.5,-0 589.5,-0 589.5,-36"/>
<text text-anchor="middle" x="546" y="-14.3" font-family="Times New Roman,serif" font-size="14.00">解析数据包2</text>
</g>
<!-- data2&#45;&gt;decode2 -->
<g id="edge5" class="edge"><title>data2&#45;&gt;decode2</title>
<path fill="none" stroke="black" d="M464.038,-18C472.806,-18 482.657,-18 492.388,-18"/>
<polygon fill="black" stroke="black" points="492.437,-21.5001 502.437,-18 492.437,-14.5001 492.437,-21.5001"/>
</g>
<!-- handle2 -->
<g id="node6" class="node"><title>handle2</title>
<polygon fill="none" stroke="black" points="715.5,-36 628.5,-36 628.5,-0 715.5,-0 715.5,-36"/>
<text text-anchor="middle" x="672" y="-14.3" font-family="Times New Roman,serif" font-size="14.00">处理数据包2</text>
</g>
<!-- decode2&#45;&gt;handle2 -->
<g id="edge6" class="edge"><title>decode2&#45;&gt;handle2</title>
<path fill="none" stroke="black" d="M589.674,-18C598.831,-18 608.614,-18 618.106,-18"/>
<polygon fill="black" stroke="black" points="618.248,-21.5001 628.248,-18 618.248,-14.5001 618.248,-21.5001"/>
</g>
</g>
</svg>
