<?xml version="1.0" encoding="UTF-8" standalone="no"?>
<!DOCTYPE svg PUBLIC "-//W3C//DTD SVG 1.1//EN"
 "http://www.w3.org/Graphics/SVG/1.1/DTD/svg11.dtd">
<!-- Generated by graphviz version 2.37.20140115.0545 (20140115.0545)
 -->
<!-- Title: G Pages: 1 -->
<svg width="321pt" height="1048pt"
 viewBox="0.00 0.00 321.00 1048.00" xmlns="http://www.w3.org/2000/svg" xmlns:xlink="http://www.w3.org/1999/xlink">
<g id="graph0" class="graph" transform="scale(1 1) rotate(0) translate(4 1044)">
<title>G</title>
<polygon fill="white" stroke="none" points="-4,4 -4,-1044 317,-1044 317,4 -4,4"/>
<!-- start -->
<g id="node1" class="node"><title>start</title>
<polygon fill="none" stroke="black" points="252,-1040 184,-1040 184,-1004 252,-1004 252,-1040"/>
<text text-anchor="middle" x="218" y="-1018.3" font-family="Times New Roman,serif" font-size="14.00">用户程序</text>
</g>
<!-- is_update -->
<g id="node2" class="node"><title>is_update</title>
<polygon fill="none" stroke="black" points="116,-952 42.7012,-934 116,-916 189.299,-934 116,-952"/>
<text text-anchor="middle" x="116" y="-930.3" font-family="Times New Roman,serif" font-size="14.00">需要更新？</text>
</g>
<!-- start&#45;&gt;is_update -->
<g id="edge1" class="edge"><title>start&#45;&gt;is_update</title>
<path fill="none" stroke="black" d="M185.465,-1003.83C176.811,-998.613 167.73,-992.523 160,-986 150.047,-977.6 140.426,-966.856 132.732,-957.397"/>
<polygon fill="black" stroke="black" points="135.449,-955.19 126.507,-949.507 129.953,-959.526 135.449,-955.19"/>
</g>
<!-- is_update&#45;&gt;start -->
<g id="edge2" class="edge"><title>is_update&#45;&gt;start</title>
<path fill="none" stroke="black" d="M132.871,-948.104C141.127,-954.596 151.166,-962.61 160,-970 170.469,-978.757 181.782,-988.613 191.613,-997.31"/>
<polygon fill="black" stroke="black" points="189.335,-999.968 199.135,-1003.99 193.984,-994.735 189.335,-999.968"/>
<text text-anchor="middle" x="183" y="-974.3" font-family="Times New Roman,serif" font-size="14.00">N</text>
</g>
<!-- update_complete -->
<g id="node3" class="node"><title>update_complete</title>
<ellipse fill="none" stroke="black" cx="102" cy="-837" rx="88.0829" ry="26.7407"/>
<text text-anchor="middle" x="102" y="-840.8" font-family="Times New Roman,serif" font-size="14.00">将APP内容烧录</text>
<text text-anchor="middle" x="102" y="-825.8" font-family="Times New Roman,serif" font-size="14.00">到FLASH空闲区域</text>
</g>
<!-- is_update&#45;&gt;update_complete -->
<g id="edge3" class="edge"><title>is_update&#45;&gt;update_complete</title>
<path fill="none" stroke="black" d="M113.561,-916.452C111.847,-904.817 109.485,-888.792 107.343,-874.258"/>
<polygon fill="black" stroke="black" points="110.755,-873.405 105.835,-864.022 103.83,-874.425 110.755,-873.405"/>
<text text-anchor="middle" x="116" y="-886.3" font-family="Times New Roman,serif" font-size="14.00">Y</text>
</g>
<!-- update_flag -->
<g id="node4" class="node"><title>update_flag</title>
<ellipse fill="none" stroke="black" cx="103" cy="-745" rx="57.4743" ry="26.7407"/>
<text text-anchor="middle" x="103" y="-748.8" font-family="Times New Roman,serif" font-size="14.00">update_flag</text>
<text text-anchor="middle" x="103" y="-733.8" font-family="Times New Roman,serif" font-size="14.00">置位</text>
</g>
<!-- update_complete&#45;&gt;update_flag -->
<g id="edge4" class="edge"><title>update_complete&#45;&gt;update_flag</title>
<path fill="none" stroke="black" d="M102.289,-809.968C102.386,-801.293 102.495,-791.466 102.598,-782.164"/>
<polygon fill="black" stroke="black" points="106.1,-782.012 102.711,-771.973 99.1004,-781.934 106.1,-782.012"/>
</g>
<!-- 重启系统 -->
<g id="node5" class="node"><title>重启系统</title>
<ellipse fill="none" stroke="black" cx="103" cy="-662" rx="44.2946" ry="18"/>
<text text-anchor="middle" x="103" y="-658.3" font-family="Times New Roman,serif" font-size="14.00">重启系统</text>
</g>
<!-- update_flag&#45;&gt;重启系统 -->
<g id="edge5" class="edge"><title>update_flag&#45;&gt;重启系统</title>
<path fill="none" stroke="black" d="M103,-717.925C103,-709.114 103,-699.254 103,-690.347"/>
<polygon fill="black" stroke="black" points="106.5,-690.088 103,-680.088 99.5001,-690.088 106.5,-690.088"/>
</g>
<!-- bootloader -->
<g id="node6" class="node"><title>bootloader</title>
<ellipse fill="none" stroke="black" cx="103" cy="-588" rx="83.2892" ry="18"/>
<text text-anchor="middle" x="103" y="-584.3" font-family="Times New Roman,serif" font-size="14.00">进入bootloader程序</text>
</g>
<!-- 重启系统&#45;&gt;bootloader -->
<g id="edge6" class="edge"><title>重启系统&#45;&gt;bootloader</title>
<path fill="none" stroke="black" d="M103,-643.937C103,-635.807 103,-625.876 103,-616.705"/>
<polygon fill="black" stroke="black" points="106.5,-616.441 103,-606.441 99.5001,-616.441 106.5,-616.441"/>
</g>
<!-- check -->
<g id="node7" class="node"><title>check</title>
<polygon fill="none" stroke="black" points="103,-532 21,-494 103,-456 185,-494 103,-532"/>
<text text-anchor="middle" x="103" y="-497.8" font-family="Times New Roman,serif" font-size="14.00">update_flag</text>
<text text-anchor="middle" x="103" y="-482.8" font-family="Times New Roman,serif" font-size="14.00">是否置位？</text>
</g>
<!-- bootloader&#45;&gt;check -->
<g id="edge7" class="edge"><title>bootloader&#45;&gt;check</title>
<path fill="none" stroke="black" d="M103,-569.696C103,-561.815 103,-552.063 103,-542.236"/>
<polygon fill="black" stroke="black" points="106.5,-542.043 103,-532.043 99.5001,-542.043 106.5,-542.043"/>
</g>
<!-- check&#45;&gt;start -->
<g id="edge8" class="edge"><title>check&#45;&gt;start</title>
<path fill="none" stroke="black" d="M148.781,-510.832C180.851,-525.166 218,-549.799 218,-587 218,-935 218,-935 218,-935 218,-954.596 218,-976.704 218,-993.598"/>
<polygon fill="black" stroke="black" points="214.5,-993.867 218,-1003.87 221.5,-993.867 214.5,-993.867"/>
<text text-anchor="middle" x="223" y="-741.3" font-family="Times New Roman,serif" font-size="14.00">N</text>
</g>
<!-- crc -->
<g id="node10" class="node"><title>crc</title>
<polygon fill="none" stroke="black" points="103,-418 32,-380 103,-342 174,-380 103,-418"/>
<text text-anchor="middle" x="103" y="-383.8" font-family="Times New Roman,serif" font-size="14.00">CRC校验</text>
<text text-anchor="middle" x="103" y="-368.8" font-family="Times New Roman,serif" font-size="14.00">是否成功</text>
</g>
<!-- check&#45;&gt;crc -->
<g id="edge10" class="edge"><title>check&#45;&gt;crc</title>
<path fill="none" stroke="black" d="M103,-455.706C103,-446.921 103,-437.443 103,-428.283"/>
<polygon fill="black" stroke="black" points="106.5,-428.131 103,-418.132 99.5001,-428.132 106.5,-428.131"/>
</g>
<!-- flash_app -->
<g id="node8" class="node"><title>flash_app</title>
<ellipse fill="none" stroke="black" cx="134" cy="-101" rx="66.2022" ry="26.7407"/>
<text text-anchor="middle" x="134" y="-104.8" font-family="Times New Roman,serif" font-size="14.00">将APP内容烧</text>
<text text-anchor="middle" x="134" y="-89.8" font-family="Times New Roman,serif" font-size="14.00">录到APP区</text>
</g>
<!-- reset_update_flag -->
<g id="node13" class="node"><title>reset_update_flag</title>
<ellipse fill="none" stroke="black" cx="228" cy="-18" rx="69.3156" ry="18"/>
<text text-anchor="middle" x="228" y="-14.3" font-family="Times New Roman,serif" font-size="14.00">复位update_flag</text>
</g>
<!-- flash_app&#45;&gt;reset_update_flag -->
<g id="edge16" class="edge"><title>flash_app&#45;&gt;reset_update_flag</title>
<path fill="none" stroke="black" d="M161.441,-76.3537C173.977,-65.5516 188.772,-52.8027 201.226,-42.0712"/>
<polygon fill="black" stroke="black" points="203.734,-44.5304 209.025,-35.3512 199.164,-39.2276 203.734,-44.5304"/>
</g>
<!-- IsEncryption -->
<g id="node9" class="node"><title>IsEncryption</title>
<polygon fill="none" stroke="black" points="73,-290 -0.298767,-272 73,-254 146.299,-272 73,-290"/>
<text text-anchor="middle" x="73" y="-268.3" font-family="Times New Roman,serif" font-size="14.00">是否加密？</text>
</g>
<!-- IsEncryption&#45;&gt;flash_app -->
<g id="edge12" class="edge"><title>IsEncryption&#45;&gt;flash_app</title>
<path fill="none" stroke="black" d="M69.0933,-254.632C64.8348,-233.342 60.0942,-195.401 72,-166 77.136,-153.317 86.1246,-141.758 95.6904,-132.06"/>
<polygon fill="black" stroke="black" points="98.2486,-134.457 103.064,-125.019 93.4143,-129.394 98.2486,-134.457"/>
<text text-anchor="middle" x="77" y="-180.3" font-family="Times New Roman,serif" font-size="14.00">N</text>
</g>
<!-- Decyrption -->
<g id="node11" class="node"><title>Decyrption</title>
<ellipse fill="none" stroke="black" cx="142" cy="-184" rx="51.0191" ry="18"/>
<text text-anchor="middle" x="142" y="-180.3" font-family="Times New Roman,serif" font-size="14.00">Decyrption</text>
</g>
<!-- IsEncryption&#45;&gt;Decyrption -->
<g id="edge9" class="edge"><title>IsEncryption&#45;&gt;Decyrption</title>
<path fill="none" stroke="black" d="M84.7049,-256.411C95.0213,-243.553 110.26,-224.56 122.429,-209.393"/>
<polygon fill="black" stroke="black" points="125.294,-211.415 128.822,-201.424 119.834,-207.034 125.294,-211.415"/>
<text text-anchor="middle" x="119" y="-224.3" font-family="Times New Roman,serif" font-size="14.00">Y</text>
</g>
<!-- crc&#45;&gt;IsEncryption -->
<g id="edge11" class="edge"><title>crc&#45;&gt;IsEncryption</title>
<path fill="none" stroke="black" d="M93.836,-346.621C89.4821,-331.237 84.3511,-313.107 80.2703,-298.688"/>
<polygon fill="black" stroke="black" points="83.6016,-297.606 77.5106,-288.937 76.8662,-299.513 83.6016,-297.606"/>
<text text-anchor="middle" x="93" y="-312.3" font-family="Times New Roman,serif" font-size="14.00">Y</text>
</g>
<!-- report_fail -->
<g id="node12" class="node"><title>report_fail</title>
<ellipse fill="none" stroke="black" cx="225" cy="-272" rx="60.1672" ry="18"/>
<text text-anchor="middle" x="225" y="-268.3" font-family="Times New Roman,serif" font-size="14.00">报告校验失败</text>
</g>
<!-- crc&#45;&gt;report_fail -->
<g id="edge13" class="edge"><title>crc&#45;&gt;report_fail</title>
<path fill="none" stroke="black" d="M129.472,-356C149.889,-338.261 177.999,-313.837 198.438,-296.078"/>
<polygon fill="black" stroke="black" points="200.883,-298.591 206.136,-289.39 196.292,-293.307 200.883,-298.591"/>
<text text-anchor="middle" x="188" y="-312.3" font-family="Times New Roman,serif" font-size="14.00">N</text>
</g>
<!-- Decyrption&#45;&gt;flash_app -->
<g id="edge14" class="edge"><title>Decyrption&#45;&gt;flash_app</title>
<path fill="none" stroke="black" d="M140.303,-165.822C139.508,-157.774 138.529,-147.861 137.582,-138.269"/>
<polygon fill="black" stroke="black" points="141.043,-137.696 136.577,-128.089 134.077,-138.384 141.043,-137.696"/>
</g>
<!-- report_fail&#45;&gt;start -->
<g id="edge15" class="edge"><title>report_fail&#45;&gt;start</title>
<path fill="none" stroke="black" d="M233.307,-290.179C242.49,-310.78 256,-346.597 256,-379 256,-935 256,-935 256,-935 256,-956.623 245.825,-978.896 236.005,-995.356"/>
<polygon fill="black" stroke="black" points="233.017,-993.533 230.653,-1003.86 238.942,-997.261 233.017,-993.533"/>
</g>
<!-- report_fail&#45;&gt;reset_update_flag -->
<g id="edge17" class="edge"><title>report_fail&#45;&gt;reset_update_flag</title>
<path fill="none" stroke="black" d="M225.206,-253.679C225.719,-210.596 227.056,-98.333 227.675,-46.2605"/>
<polygon fill="black" stroke="black" points="231.177,-46.15 227.796,-36.109 224.177,-46.0666 231.177,-46.15"/>
</g>
<!-- reset_update_flag&#45;&gt;start -->
<g id="edge18" class="edge"><title>reset_update_flag&#45;&gt;start</title>
<path fill="none" stroke="black" d="M260.62,-33.9769C284.591,-47.4725 313,-69.8312 313,-100 313,-935 313,-935 313,-935 313,-965.216 286.259,-987.578 261.152,-1001.91"/>
<polygon fill="black" stroke="black" points="259.17,-999.006 252.029,-1006.83 262.492,-1005.17 259.17,-999.006"/>
</g>
</g>
</svg>
